<mxfile host="Electron" modified="2024-03-02T11:19:27.871Z" agent="Mozilla/5.0 (Windows NT 10.0; Win64; x64) AppleWebKit/537.36 (KHTML, like Gecko) draw.io/23.1.5 Chrome/120.0.6099.109 Electron/28.1.0 Safari/537.36" etag="FFO3jn1d1NtUvXNBHEK6" version="23.1.5" type="device">
  <diagram id="uRuDTpWEezdbFmdztTyM" name="ページ1">
    <mxGraphModel dx="819" dy="478" grid="1" gridSize="10" guides="1" tooltips="1" connect="1" arrows="1" fold="1" page="1" pageScale="1" pageWidth="1169" pageHeight="827" math="1" shadow="0">
      <root>
        <mxCell id="0" />
        <mxCell id="1" parent="0" />
        <mxCell id="GVUUAw4KoGOm86ha5iz0-1" value="" style="rounded=0;whiteSpace=wrap;html=1;" parent="1" vertex="1">
          <mxGeometry x="445" y="216" width="160" height="160" as="geometry" />
        </mxCell>
        <mxCell id="is-glhXsJS0VU_Mg_TwM-1" value="&lt;span style=&quot;font-size: 24px;&quot;&gt;PCB&lt;/span&gt;" style="text;html=1;align=center;verticalAlign=middle;resizable=0;points=[];autosize=1;strokeColor=none;fillColor=none;fontSize=11;fontFamily=Helvetica;fontColor=default;" parent="1" vertex="1">
          <mxGeometry x="490" y="276" width="70" height="40" as="geometry" />
        </mxCell>
        <mxCell id="is-glhXsJS0VU_Mg_TwM-11" style="edgeStyle=orthogonalEdgeStyle;rounded=0;orthogonalLoop=1;jettySize=auto;html=1;exitX=0.5;exitY=1;exitDx=0;exitDy=0;entryX=0.5;entryY=1;entryDx=0;entryDy=0;endArrow=none;endFill=0;" parent="1" source="is-glhXsJS0VU_Mg_TwM-8" target="GVUUAw4KoGOm86ha5iz0-1" edge="1">
          <mxGeometry relative="1" as="geometry">
            <Array as="points">
              <mxPoint x="777" y="500" />
              <mxPoint x="520" y="500" />
            </Array>
          </mxGeometry>
        </mxCell>
        <mxCell id="is-glhXsJS0VU_Mg_TwM-10" style="edgeStyle=orthogonalEdgeStyle;rounded=0;orthogonalLoop=1;jettySize=auto;html=1;exitX=0.5;exitY=1;exitDx=0;exitDy=0;entryX=0.25;entryY=1;entryDx=0;entryDy=0;endArrow=none;endFill=0;" parent="1" source="is-glhXsJS0VU_Mg_TwM-9" target="GVUUAw4KoGOm86ha5iz0-1" edge="1">
          <mxGeometry relative="1" as="geometry">
            <Array as="points">
              <mxPoint x="791" y="520" />
              <mxPoint x="480" y="520" />
            </Array>
          </mxGeometry>
        </mxCell>
        <mxCell id="is-glhXsJS0VU_Mg_TwM-12" value="" style="shape=waypoint;sketch=0;fillStyle=solid;size=6;pointerEvents=1;points=[];fillColor=none;resizable=0;rotatable=0;perimeter=centerPerimeter;snapToPoint=1;fontFamily=Helvetica;fontSize=11;fontColor=default;labelBackgroundColor=default;" parent="1" vertex="1">
          <mxGeometry x="737" y="400" width="20" height="20" as="geometry" />
        </mxCell>
        <mxCell id="is-glhXsJS0VU_Mg_TwM-14" style="edgeStyle=orthogonalEdgeStyle;rounded=0;orthogonalLoop=1;jettySize=auto;html=1;exitX=0.5;exitY=1;exitDx=0;exitDy=0;entryX=0.66;entryY=-0.067;entryDx=0;entryDy=0;entryPerimeter=0;strokeColor=default;align=center;verticalAlign=middle;fontFamily=Helvetica;fontSize=11;fontColor=default;labelBackgroundColor=default;endArrow=none;endFill=0;" parent="1" source="is-glhXsJS0VU_Mg_TwM-7" target="is-glhXsJS0VU_Mg_TwM-12" edge="1">
          <mxGeometry relative="1" as="geometry" />
        </mxCell>
        <mxCell id="is-glhXsJS0VU_Mg_TwM-15" style="edgeStyle=orthogonalEdgeStyle;rounded=0;orthogonalLoop=1;jettySize=auto;html=1;exitX=0.5;exitY=1;exitDx=0;exitDy=0;entryX=0.054;entryY=0.456;entryDx=0;entryDy=0;entryPerimeter=0;strokeColor=default;align=center;verticalAlign=middle;fontFamily=Helvetica;fontSize=11;fontColor=default;labelBackgroundColor=default;endArrow=none;endFill=0;" parent="1" source="is-glhXsJS0VU_Mg_TwM-5" target="is-glhXsJS0VU_Mg_TwM-12" edge="1">
          <mxGeometry relative="1" as="geometry">
            <mxPoint x="707" y="460" as="targetPoint" />
            <Array as="points">
              <mxPoint x="707" y="410" />
            </Array>
          </mxGeometry>
        </mxCell>
        <mxCell id="is-glhXsJS0VU_Mg_TwM-16" value="" style="shape=waypoint;sketch=0;fillStyle=solid;size=6;pointerEvents=1;points=[];fillColor=none;resizable=0;rotatable=0;perimeter=centerPerimeter;snapToPoint=1;fontFamily=Helvetica;fontSize=11;fontColor=default;labelBackgroundColor=default;" parent="1" vertex="1">
          <mxGeometry x="781" y="400" width="20" height="20" as="geometry" />
        </mxCell>
        <mxCell id="is-glhXsJS0VU_Mg_TwM-17" style="edgeStyle=orthogonalEdgeStyle;rounded=0;orthogonalLoop=1;jettySize=auto;html=1;entryX=0.038;entryY=0.52;entryDx=0;entryDy=0;entryPerimeter=0;strokeColor=default;align=center;verticalAlign=middle;fontFamily=Helvetica;fontSize=11;fontColor=default;labelBackgroundColor=default;endArrow=none;endFill=0;" parent="1" source="is-glhXsJS0VU_Mg_TwM-12" target="is-glhXsJS0VU_Mg_TwM-16" edge="1">
          <mxGeometry relative="1" as="geometry" />
        </mxCell>
        <mxCell id="is-glhXsJS0VU_Mg_TwM-19" value="GND" style="text;html=1;align=center;verticalAlign=middle;resizable=0;points=[];autosize=1;strokeColor=none;fillColor=none;fontFamily=Helvetica;fontSize=11;fontColor=default;labelBackgroundColor=none;" parent="1" vertex="1">
          <mxGeometry x="470" y="514" width="50" height="30" as="geometry" />
        </mxCell>
        <mxCell id="is-glhXsJS0VU_Mg_TwM-20" value="MultiplerVDD" style="text;html=1;align=center;verticalAlign=middle;resizable=0;points=[];autosize=1;strokeColor=none;fillColor=none;fontFamily=Helvetica;fontSize=11;fontColor=default;labelBackgroundColor=none;" parent="1" vertex="1">
          <mxGeometry x="695" y="492" width="90" height="30" as="geometry" />
        </mxCell>
        <mxCell id="is-glhXsJS0VU_Mg_TwM-21" value="" style="group" parent="1" vertex="1" connectable="0">
          <mxGeometry x="680" y="330" width="120" height="60" as="geometry" />
        </mxCell>
        <mxCell id="is-glhXsJS0VU_Mg_TwM-3" value="DC電源&lt;div&gt;&lt;br/&gt;&lt;/div&gt;" style="rounded=0;whiteSpace=wrap;html=1;" parent="is-glhXsJS0VU_Mg_TwM-21" vertex="1">
          <mxGeometry width="120" height="60" as="geometry" />
        </mxCell>
        <mxCell id="is-glhXsJS0VU_Mg_TwM-4" value="P" style="ellipse;whiteSpace=wrap;html=1;aspect=fixed;" parent="is-glhXsJS0VU_Mg_TwM-21" vertex="1">
          <mxGeometry x="6" y="46" width="14" height="14" as="geometry" />
        </mxCell>
        <mxCell id="is-glhXsJS0VU_Mg_TwM-5" value="M" style="ellipse;whiteSpace=wrap;html=1;aspect=fixed;" parent="is-glhXsJS0VU_Mg_TwM-21" vertex="1">
          <mxGeometry x="20" y="46" width="14" height="14" as="geometry" />
        </mxCell>
        <mxCell id="is-glhXsJS0VU_Mg_TwM-6" value="P" style="ellipse;whiteSpace=wrap;html=1;aspect=fixed;" parent="is-glhXsJS0VU_Mg_TwM-21" vertex="1">
          <mxGeometry x="46" y="46" width="14" height="14" as="geometry" />
        </mxCell>
        <mxCell id="is-glhXsJS0VU_Mg_TwM-7" value="M" style="ellipse;whiteSpace=wrap;html=1;aspect=fixed;" parent="is-glhXsJS0VU_Mg_TwM-21" vertex="1">
          <mxGeometry x="60" y="46" width="14" height="14" as="geometry" />
        </mxCell>
        <mxCell id="is-glhXsJS0VU_Mg_TwM-8" value="P" style="ellipse;whiteSpace=wrap;html=1;aspect=fixed;" parent="is-glhXsJS0VU_Mg_TwM-21" vertex="1">
          <mxGeometry x="90" y="46" width="14" height="14" as="geometry" />
        </mxCell>
        <mxCell id="is-glhXsJS0VU_Mg_TwM-9" value="M" style="ellipse;whiteSpace=wrap;html=1;aspect=fixed;" parent="is-glhXsJS0VU_Mg_TwM-21" vertex="1">
          <mxGeometry x="104" y="46" width="14" height="14" as="geometry" />
        </mxCell>
        <mxCell id="is-glhXsJS0VU_Mg_TwM-22" value="" style="pointerEvents=1;verticalLabelPosition=bottom;shadow=0;dashed=0;align=center;html=1;verticalAlign=top;shape=mxgraph.electrical.resistors.resistor_1;fontFamily=Helvetica;fontSize=11;fontColor=default;labelBackgroundColor=default;" parent="1" vertex="1">
          <mxGeometry x="590" y="460" width="100" height="20" as="geometry" />
        </mxCell>
        <mxCell id="is-glhXsJS0VU_Mg_TwM-23" style="edgeStyle=orthogonalEdgeStyle;rounded=0;orthogonalLoop=1;jettySize=auto;html=1;exitX=0.5;exitY=1;exitDx=0;exitDy=0;entryX=1;entryY=0.5;entryDx=0;entryDy=0;entryPerimeter=0;strokeColor=default;align=center;verticalAlign=middle;fontFamily=Helvetica;fontSize=11;fontColor=default;labelBackgroundColor=default;endArrow=none;endFill=0;" parent="1" source="is-glhXsJS0VU_Mg_TwM-6" target="is-glhXsJS0VU_Mg_TwM-22" edge="1">
          <mxGeometry relative="1" as="geometry">
            <Array as="points">
              <mxPoint x="733" y="470" />
            </Array>
          </mxGeometry>
        </mxCell>
        <mxCell id="is-glhXsJS0VU_Mg_TwM-24" style="edgeStyle=orthogonalEdgeStyle;rounded=0;orthogonalLoop=1;jettySize=auto;html=1;exitX=0;exitY=0.5;exitDx=0;exitDy=0;exitPerimeter=0;entryX=0.626;entryY=1.003;entryDx=0;entryDy=0;entryPerimeter=0;strokeColor=default;align=center;verticalAlign=middle;fontFamily=Helvetica;fontSize=11;fontColor=default;labelBackgroundColor=default;endArrow=none;endFill=0;" parent="1" source="is-glhXsJS0VU_Mg_TwM-22" target="GVUUAw4KoGOm86ha5iz0-1" edge="1">
          <mxGeometry relative="1" as="geometry" />
        </mxCell>
        <mxCell id="is-glhXsJS0VU_Mg_TwM-25" value="UCurrentSourceRef" style="text;html=1;align=center;verticalAlign=middle;resizable=0;points=[];autosize=1;strokeColor=none;fillColor=none;fontFamily=Helvetica;fontSize=11;fontColor=default;labelBackgroundColor=none;" parent="1" vertex="1">
          <mxGeometry x="580" y="471" width="120" height="30" as="geometry" />
        </mxCell>
        <mxCell id="is-glhXsJS0VU_Mg_TwM-27" value="UCurrentSourceCopy" style="text;html=1;align=center;verticalAlign=middle;resizable=0;points=[];autosize=1;strokeColor=none;fillColor=none;fontFamily=Helvetica;fontSize=11;fontColor=default;labelBackgroundColor=none;" parent="1" vertex="1">
          <mxGeometry x="575" y="425" width="130" height="30" as="geometry" />
        </mxCell>
        <mxCell id="is-glhXsJS0VU_Mg_TwM-28" value="&lt;span style=&quot;font-size: 14px;&quot;&gt;`1\Omega`&lt;/span&gt;" style="text;html=1;align=center;verticalAlign=middle;resizable=0;points=[];autosize=1;strokeColor=none;fillColor=none;fontSize=14;fontFamily=Helvetica;fontColor=default;labelBackgroundColor=none;" parent="1" vertex="1">
          <mxGeometry x="595" y="455" width="90" height="30" as="geometry" />
        </mxCell>
        <mxCell id="is-glhXsJS0VU_Mg_TwM-32" value="" style="pointerEvents=1;verticalLabelPosition=bottom;shadow=0;dashed=0;align=center;html=1;verticalAlign=top;shape=mxgraph.electrical.resistors.resistor_1;fontFamily=Helvetica;fontSize=11;fontColor=default;labelBackgroundColor=default;" parent="1" vertex="1">
          <mxGeometry x="590" y="415" width="100" height="20" as="geometry" />
        </mxCell>
        <mxCell id="is-glhXsJS0VU_Mg_TwM-34" style="edgeStyle=orthogonalEdgeStyle;rounded=0;orthogonalLoop=1;jettySize=auto;html=1;exitX=0.5;exitY=1;exitDx=0;exitDy=0;strokeColor=default;align=center;verticalAlign=middle;fontFamily=Helvetica;fontSize=11;fontColor=default;labelBackgroundColor=default;endArrow=none;endFill=0;entryX=1;entryY=0.5;entryDx=0;entryDy=0;entryPerimeter=0;" parent="1" source="is-glhXsJS0VU_Mg_TwM-4" target="is-glhXsJS0VU_Mg_TwM-32" edge="1">
          <mxGeometry relative="1" as="geometry">
            <mxPoint x="693" y="410" as="targetPoint" />
            <Array as="points">
              <mxPoint x="693" y="425" />
            </Array>
          </mxGeometry>
        </mxCell>
        <mxCell id="is-glhXsJS0VU_Mg_TwM-35" style="edgeStyle=orthogonalEdgeStyle;rounded=0;orthogonalLoop=1;jettySize=auto;html=1;exitX=0;exitY=0.5;exitDx=0;exitDy=0;exitPerimeter=0;strokeColor=default;align=center;verticalAlign=middle;fontFamily=Helvetica;fontSize=11;fontColor=default;labelBackgroundColor=default;endArrow=none;endFill=0;entryX=0.781;entryY=0.999;entryDx=0;entryDy=0;entryPerimeter=0;" parent="1" source="is-glhXsJS0VU_Mg_TwM-32" target="GVUUAw4KoGOm86ha5iz0-1" edge="1">
          <mxGeometry relative="1" as="geometry">
            <mxPoint x="570" y="380" as="targetPoint" />
          </mxGeometry>
        </mxCell>
        <mxCell id="is-glhXsJS0VU_Mg_TwM-36" value="&lt;span style=&quot;font-size: 14px;&quot;&gt;`1\Omega`&lt;/span&gt;" style="text;html=1;align=center;verticalAlign=middle;resizable=0;points=[];autosize=1;strokeColor=none;fillColor=none;fontSize=14;fontFamily=Helvetica;fontColor=default;labelBackgroundColor=none;" parent="1" vertex="1">
          <mxGeometry x="595" y="410" width="90" height="30" as="geometry" />
        </mxCell>
        <mxCell id="5x4CzxPNtEvlEAPOqlFB-6" value="" style="group" vertex="1" connectable="0" parent="1">
          <mxGeometry x="840" y="390" width="120" height="60" as="geometry" />
        </mxCell>
        <mxCell id="5x4CzxPNtEvlEAPOqlFB-1" value="oscilloscope&lt;div&gt;&lt;br/&gt;&lt;/div&gt;" style="rounded=0;whiteSpace=wrap;html=1;" vertex="1" parent="5x4CzxPNtEvlEAPOqlFB-6">
          <mxGeometry width="120" height="60" as="geometry" />
        </mxCell>
        <mxCell id="5x4CzxPNtEvlEAPOqlFB-9" style="edgeStyle=orthogonalEdgeStyle;rounded=0;orthogonalLoop=1;jettySize=auto;html=1;exitX=0.5;exitY=1;exitDx=0;exitDy=0;" edge="1" parent="5x4CzxPNtEvlEAPOqlFB-6" source="5x4CzxPNtEvlEAPOqlFB-2">
          <mxGeometry relative="1" as="geometry">
            <mxPoint x="-250" y="30" as="targetPoint" />
            <Array as="points">
              <mxPoint x="33" y="90" />
              <mxPoint x="-10" y="90" />
              <mxPoint x="-10" y="-100" />
              <mxPoint x="-220" y="-100" />
              <mxPoint x="-220" />
              <mxPoint x="-250" />
            </Array>
          </mxGeometry>
        </mxCell>
        <mxCell id="5x4CzxPNtEvlEAPOqlFB-2" value="P" style="ellipse;whiteSpace=wrap;html=1;aspect=fixed;" vertex="1" parent="5x4CzxPNtEvlEAPOqlFB-6">
          <mxGeometry x="26" y="46" width="14" height="14" as="geometry" />
        </mxCell>
        <mxCell id="5x4CzxPNtEvlEAPOqlFB-3" value="M" style="ellipse;whiteSpace=wrap;html=1;aspect=fixed;" vertex="1" parent="5x4CzxPNtEvlEAPOqlFB-6">
          <mxGeometry x="40" y="46" width="14" height="14" as="geometry" />
        </mxCell>
        <mxCell id="5x4CzxPNtEvlEAPOqlFB-12" style="edgeStyle=orthogonalEdgeStyle;rounded=0;orthogonalLoop=1;jettySize=auto;html=1;exitX=0.5;exitY=1;exitDx=0;exitDy=0;" edge="1" parent="5x4CzxPNtEvlEAPOqlFB-6" source="5x4CzxPNtEvlEAPOqlFB-4">
          <mxGeometry relative="1" as="geometry">
            <mxPoint x="-270" y="80" as="targetPoint" />
            <Array as="points">
              <mxPoint x="73" y="170" />
              <mxPoint x="-270" y="170" />
            </Array>
          </mxGeometry>
        </mxCell>
        <mxCell id="5x4CzxPNtEvlEAPOqlFB-4" value="P" style="ellipse;whiteSpace=wrap;html=1;aspect=fixed;" vertex="1" parent="5x4CzxPNtEvlEAPOqlFB-6">
          <mxGeometry x="66" y="46" width="14" height="14" as="geometry" />
        </mxCell>
        <mxCell id="5x4CzxPNtEvlEAPOqlFB-11" style="edgeStyle=orthogonalEdgeStyle;rounded=0;orthogonalLoop=1;jettySize=auto;html=1;exitX=0.5;exitY=1;exitDx=0;exitDy=0;" edge="1" parent="5x4CzxPNtEvlEAPOqlFB-6" source="5x4CzxPNtEvlEAPOqlFB-5">
          <mxGeometry relative="1" as="geometry">
            <mxPoint x="-140" y="80" as="targetPoint" />
            <Array as="points">
              <mxPoint x="87" y="160" />
              <mxPoint x="-140" y="160" />
            </Array>
          </mxGeometry>
        </mxCell>
        <mxCell id="5x4CzxPNtEvlEAPOqlFB-5" value="M" style="ellipse;whiteSpace=wrap;html=1;aspect=fixed;" vertex="1" parent="5x4CzxPNtEvlEAPOqlFB-6">
          <mxGeometry x="80" y="46" width="14" height="14" as="geometry" />
        </mxCell>
        <mxCell id="5x4CzxPNtEvlEAPOqlFB-10" style="edgeStyle=orthogonalEdgeStyle;rounded=0;orthogonalLoop=1;jettySize=auto;html=1;exitX=0.5;exitY=1;exitDx=0;exitDy=0;entryX=0.944;entryY=0.333;entryDx=0;entryDy=0;entryPerimeter=0;" edge="1" parent="1" source="5x4CzxPNtEvlEAPOqlFB-3" target="is-glhXsJS0VU_Mg_TwM-36">
          <mxGeometry relative="1" as="geometry">
            <mxPoint x="740" y="430" as="targetPoint" />
            <Array as="points">
              <mxPoint x="887" y="500" />
              <mxPoint x="810" y="500" />
              <mxPoint x="810" y="310" />
              <mxPoint x="650" y="310" />
              <mxPoint x="650" y="400" />
              <mxPoint x="680" y="400" />
            </Array>
          </mxGeometry>
        </mxCell>
      </root>
    </mxGraphModel>
  </diagram>
</mxfile>
